<?xml version="1.0" encoding="UTF-8"?>
<svg version="1.1" xmlns="http://www.w3.org/2000/svg" width="256" height="256">
<path d="M0 0 C3.375 1.0625 3.375 1.0625 5.3125 2.6875 C6.375 5.0625 6.375 5.0625 6.19067383 8.2199707 C6.42186646 13.0394949 8.00217498 15.82188622 10.38671875 19.91796875 C11.22352402 21.42520016 12.05593379 22.93487902 12.88427734 24.44677734 C13.30449158 25.21310486 13.72470581 25.97943237 14.15765381 26.76898193 C17.53129157 33.12502035 20.30774983 39.78513074 23.1875 46.375 C23.88648064 47.96351953 24.5857869 49.55189581 25.28540039 51.14013672 C27.011816 55.06533496 28.72930414 58.99435661 30.44274902 62.92523193 C31.29210762 64.87246186 32.14398155 66.81856225 32.99707031 68.76416016 C39.37153942 83.32866499 45.45195109 98.01113882 51.44778442 112.73480225 C52.22939509 114.65374508 53.01248471 116.57208621 53.79708862 118.48980713 C54.89631167 121.17979409 55.98830927 123.87259659 57.078125 126.56640625 C57.41185623 127.38068588 57.74558746 128.19496552 58.08943176 129.03392029 C60.375 134.71848793 60.375 134.71848793 60.375 138.0625 C73.56457955 132.00892398 85.14135713 124.58491547 95.60546875 114.4609375 C97.375 113.0625 97.375 113.0625 100.375 113.0625 C99.02553284 117.87269745 96.91992101 121.62503808 94 125.625 C93.56445801 126.22707275 93.12891602 126.82914551 92.68017578 127.44946289 C85.6476118 136.96067676 77.51198759 145.55186619 68.375 153.0625 C69.84076752 161.24482247 72.73459309 168.8291415 75.62634277 176.58752441 C80.1395336 188.72716903 84.44807321 200.89129982 88.125 213.3125 C88.44742676 214.39257324 88.76985352 215.47264648 89.10205078 216.58544922 C90.69181393 222.09023508 91.85605585 227.35411438 92.375 233.0625 C91.055 233.0625 89.735 233.0625 88.375 233.0625 C86.47167969 230.69555664 86.47167969 230.69555664 84.546875 227.41015625 C84.20130554 226.82331558 83.85573608 226.23647491 83.49969482 225.6318512 C79.89226767 219.41299645 76.71070599 212.99094839 73.625 206.5 C73.1867691 205.58645248 73.1867691 205.58645248 72.73968506 204.65444946 C66.18183305 190.97901518 60.20844266 177.05984729 54.375 163.0625 C52.57869141 163.85914063 52.57869141 163.85914063 50.74609375 164.671875 C20.80315646 177.74333266 -13.94433384 181.62909805 -45.08178711 169.73291016 C-47.95998905 168.5770884 -50.79244357 167.32542325 -53.625 166.0625 C-55.28856891 165.38814052 -56.9540602 164.71838291 -58.625 164.0625 C-58.97691406 165.22523438 -59.32882813 166.38796875 -59.69140625 167.5859375 C-62.1151065 174.83864474 -65.38569357 181.74210011 -68.5625 188.6875 C-68.89181519 189.41061371 -69.22113037 190.13372742 -69.5604248 190.87875366 C-85.81533469 226.51417724 -85.81533469 226.51417724 -91.625 233.0625 C-92.615 233.0625 -93.605 233.0625 -94.625 233.0625 C-95.05932733 226.02973823 -93.52091924 220.35611836 -91.375 213.6875 C-91.02800049 212.58277344 -90.68100098 211.47804687 -90.32348633 210.33984375 C-86.7219823 199.04368792 -82.76183121 187.86965623 -78.75097656 176.71337891 C-76.17905843 169.55056872 -73.68367597 162.39398596 -71.625 155.0625 C-72.8934375 153.91974609 -72.8934375 153.91974609 -74.1875 152.75390625 C-86.30563427 141.75921283 -97.59542295 130.09348503 -104.625 115.0625 C-104.625 114.4025 -104.625 113.7425 -104.625 113.0625 C-100.5553908 114.6883965 -97.82479735 117.61865566 -94.75 120.625 C-86.1326783 128.81386338 -76.4328708 135.09087943 -65.625 140.0625 C-62.23329117 133.60431469 -59.5968079 126.99841729 -57 120.1875 C-28.22421242 45.95017327 -28.22421242 45.95017327 -11.06030273 17.03881836 C-8.6604922 12.85167657 -8.48799034 9.82358551 -8.625 5.0625 C-5.94590469 1.1656341 -4.7824172 0.08245547 0 0 Z " fill="#0491FE" transform="translate(130.625,9.9375)"/>
<path d="M0 0 C0.99 0 1.98 0 3 0 C3.24121582 0.825 3.48243164 1.65 3.73095703 2.5 C8.03911223 17.18419232 12.34147192 31.76698925 18 46 C19.05369045 48.76635556 20.0895728 51.53926569 21.125 54.3125 C21.37862305 54.98796875 21.63224609 55.6634375 21.89355469 56.359375 C23.26798025 60.02210173 24.616388 63.69275167 25.9375 67.375 C28.27117129 73.83149058 30.788385 80.21624623 33.2890625 86.609375 C34.65554677 90.10530968 35.98837426 93.61277994 37.3125 97.125 C38.96257103 101.45643646 40.72143313 105.72868761 42.53125 109.99609375 C42.98717529 111.0742334 43.44310059 112.15237305 43.9128418 113.26318359 C44.83495737 115.43682216 45.76335887 117.6078064 46.69848633 119.77587891 C47.12411865 120.77925293 47.54975098 121.78262695 47.98828125 122.81640625 C48.37540283 123.71818604 48.76252441 124.61996582 49.16137695 125.54907227 C50 128 50 128 50 132 C21.30099943 140.80639114 -15.89169071 144.1207035 -45 135 C-45.99 134.34 -46.98 133.68 -48 133 C-47.38857705 126.86102712 -44.97131418 121.48736484 -42.66796875 115.828125 C-42.23494949 114.75052917 -41.80193024 113.67293335 -41.35578918 112.56268311 C-39.97202323 109.12280836 -38.57991788 105.68638042 -37.1875 102.25 C-36.26181255 99.95334952 -35.33667646 97.65647673 -34.41210938 95.359375 C-32.70288327 91.11481951 -30.99040125 86.87161042 -29.27416992 82.62988281 C-27.77553649 78.92269414 -26.27959254 75.21446135 -24.79052734 71.50341797 C-24.4779599 70.72449188 -24.16539246 69.9455658 -23.84335327 69.14303589 C-22.63657482 66.0765042 -21.53036895 62.98408592 -20.4375 59.875 C-18.92540505 55.60148774 -17.39571136 51.33961122 -15.78857422 47.10107422 C-12.72620482 38.94170856 -9.81791923 30.72501214 -6.9375 22.5 C-6.59912109 21.54480469 -6.26074219 20.58960937 -5.91210938 19.60546875 C-3.64970133 13.13769489 -1.71580567 6.63347785 0 0 Z " fill="#6E7072" transform="translate(128,23)"/>
<path d="M0 0 C0.99 0 1.98 0 3 0 C3.24121582 0.825 3.48243164 1.65 3.73095703 2.5 C8.0389036 17.18348122 12.33597185 31.76971439 18 46 C19.13759647 48.95361896 20.25736604 51.91378147 21.375 54.875 C21.63821045 55.56062012 21.9014209 56.24624023 22.17260742 56.95263672 C24 61.77282259 24 61.77282259 24 64 C22.02 64.495 22.02 64.495 20 65 C19.67 64.34 19.34 63.68 19 63 C18.34 63 17.68 63 17 63 C17 63.99 17 64.98 17 66 C17.99 66.495 17.99 66.495 19 67 C19 67.66 19 68.32 19 69 C17.1746875 68.7215625 17.1746875 68.7215625 15.3125 68.4375 C12.63996193 68.08870314 10.92523981 68.01529186 8.25 68.5625 C6 69 6 69 3.9375 67.9375 C2.9784375 67.4734375 2.9784375 67.4734375 2 67 C1.39800781 67.31839844 0.79601562 67.63679688 0.17578125 67.96484375 C-2.46052137 69.21909904 -3.89131393 69.04539501 -6.75 68.625 C-7.54921875 68.51414062 -8.3484375 68.40328125 -9.171875 68.2890625 C-9.77515625 68.19367188 -10.3784375 68.09828125 -11 68 C-11.495 65.525 -11.495 65.525 -12 63 C-12.66 63 -13.32 63 -14 63 C-14.66 64.65 -15.32 66.3 -16 68 C-16.66 68 -17.32 68 -18 68 C-18.495 65.03 -18.495 65.03 -19 62 C-19.99 62.495 -19.99 62.495 -21 63 C-19.4598129 57.66942337 -17.85686729 52.40383576 -15.85205078 47.22851562 C-12.7231528 39.04496812 -9.83308255 30.76831088 -6.9375 22.5 C-6.59912109 21.54480469 -6.26074219 20.58960937 -5.91210938 19.60546875 C-3.64970133 13.13769489 -1.71580567 6.63347785 0 0 Z " fill="#6C7072" transform="translate(128,23)"/>
<path d="M0 0 C2.4375 2 2.4375 2 4 4 C4.5259375 3.2884375 4.5259375 3.2884375 5.0625 2.5625 C7.84163543 0.32126175 10.5144717 0.32882342 14 0 C15.0430083 3.20925631 14.91277383 5.25451033 14.0625 8.5 C13.26352216 11.59008649 13 13.71929814 13 17 C13.38671875 16.18015625 13.7734375 15.3603125 14.171875 14.515625 C14.69265625 13.43796875 15.2134375 12.3603125 15.75 11.25 C16.26046875 10.18265625 16.7709375 9.1153125 17.296875 8.015625 C18.94336514 5.10028007 20.42642531 3.12422038 23 1 C25.75 0.75 25.75 0.75 28 1 C26.67456676 11.42064753 20.12820799 20.51466737 13 28 C9.8125 30.25 9.8125 30.25 7 31 C5.35 30.34 3.7 29.68 2 29 C2 22.73 2 16.46 2 10 C-0.2981424 13.8509288 -0.2981424 13.8509288 0 18 C0 23.00928793 0 23.00928793 -2 26 C-6.74436125 29.04373481 -12.38087241 30.89397872 -18 31 C-22.01519063 29.48483372 -23.60368353 28.5944747 -26 25 C-26.47543535 19.97821407 -25.30187136 15.88194681 -22.375 11.8125 C-16.23682931 4.43786328 -10.13169259 -1.10527556 0 0 Z M-9 9 C-9.33 9.66 -9.66 10.32 -10 11 C-9.34 11 -8.68 11 -8 11 C-8.33 10.34 -8.66 9.68 -9 9 Z M-11 11 C-11.33 11.66 -11.66 12.32 -12 13 C-11.34 13 -10.68 13 -10 13 C-10.33 12.34 -10.66 11.68 -11 11 Z M-14 21 C-14 21.66 -14 22.32 -14 23 C-12.02 22.67 -10.04 22.34 -8 22 C-8 21.67 -8 21.34 -8 21 C-9.98 21 -11.96 21 -14 21 Z " fill="#0492FF" transform="translate(132,198)"/>
<path d="M0 0 C2.67302833 1.87111983 3.34886741 2.77534429 4.5 5.75 C4.83305493 11.75609058 3.23555985 17.06091887 -0.5 21.75 C-4.98294245 26.3713706 -9.13668814 29.47311718 -15.7265625 30.015625 C-16.84804687 30.01046875 -17.96953125 30.0053125 -19.125 30 C-20.25164062 30.00515625 -21.37828125 30.0103125 -22.5390625 30.015625 C-25.5 29.75 -25.5 29.75 -28.5 27.75 C-27.85534798 23.41695924 -26.31074878 19.88327935 -24.4375 15.9375 C-23.88964844 14.77605469 -23.34179688 13.61460937 -22.77734375 12.41796875 C-22.35582031 11.53753906 -21.93429688 10.65710938 -21.5 9.75 C-22.49 9.09 -23.48 8.43 -24.5 7.75 C-24.0625 4.9375 -24.0625 4.9375 -22.5 1.75 C-15.84526874 -2.22536463 -7.15858075 -2.55663598 0 0 Z M-8.5 6.75 C-9.67407021 9.01727333 -10.83939739 11.28834624 -12 13.5625 C-12.33386719 14.20509766 -12.66773437 14.84769531 -13.01171875 15.50976562 C-14.50239084 18.44547699 -15.5 20.41126517 -15.5 23.75 C-12.32966958 23.41032174 -11.50117393 22.75130809 -9.3125 20.3125 C-6.4135507 16.21398547 -6.22962131 13.79706886 -6.5 8.75 C-7.16 8.09 -7.82 7.43 -8.5 6.75 Z " fill="#0492FF" transform="translate(103.5,198.25)"/>
<path d="M0 0 C2.125 1.6875 2.125 1.6875 3 4 C3 7.80684197 2.03318068 8.96358218 -0.5625 11.8125 C-1.366875 12.534375 -2.17125 13.25625 -3 14 C-2.01 15.485 -2.01 15.485 -1 17 C-1.19548512 22.27809812 -2.25953664 25.25953664 -6 29 C-9.47944493 31.51959805 -12.80630794 31.44144127 -17 31 C-20.32783116 29.0467078 -21.71192872 27.97501049 -22.8125 24.25 C-22.874375 23.5075 -22.93625 22.765 -23 22 C-18.25 18.125 -18.25 18.125 -16 17 C-16.66 16.01 -17.32 15.02 -18 14 C-18 7.19241983 -18 7.19241983 -15.66015625 4.40234375 C-10.54990736 0.1167316 -6.5305435 -0.85959622 0 0 Z M-7 7 C-6 10 -6 10 -6 10 Z M-14 19 C-13.67 20.98 -13.34 22.96 -13 25 C-12.67 25 -12.34 25 -12 25 C-12 23.35 -12 21.7 -12 20 C-12.66 19.67 -13.32 19.34 -14 19 Z " fill="#0492FF" transform="translate(179,198)"/>
<path d="M0 0 C5.28 0 10.56 0 16 0 C15.67 5.61 15.34 11.22 15 17 C10.50927531 18.12268117 5.31160613 19.15580306 1 17 C-0.01832351 11.29738833 -0.09035382 5.78264443 0 0 Z " fill="#3158E1" transform="translate(122,134)"/>
<path d="M0 0 C2.31 0.33 4.62 0.66 7 1 C9.81237541 0.64025105 9.81237541 0.64025105 12 0 C12.66 2.31 13.32 4.62 14 7 C13.01 7.495 13.01 7.495 12 8 C10.87293294 10.11015954 10.87293294 10.11015954 9.875 12.5625 C9.52179688 13.38878906 9.16859375 14.21507812 8.8046875 15.06640625 C8.40636719 16.02353516 8.40636719 16.02353516 8 17 C8.99 17 9.98 17 11 17 C11 15.35 11 13.7 11 12 C11.66 12 12.32 12 13 12 C13 13.98 13 15.96 13 18 C10.75 18.75 10.75 18.75 8 19 C5.875 17.125 5.875 17.125 4 15 C3.01 14.67 2.02 14.34 1 14 C0.67 15.32 0.34 16.64 0 18 C0 12.06 0 6.12 0 0 Z " fill="#66B4C9" transform="translate(98,134)"/>
<path d="M0 0 C2.32421875 0.21484375 2.32421875 0.21484375 5 1 C6.58203125 3.06640625 6.58203125 3.06640625 7.8125 5.5625 C8.23144531 6.38878906 8.65039062 7.21507812 9.08203125 8.06640625 C9.38496094 8.70449219 9.68789062 9.34257812 10 10 C12.10186897 7.46326158 13.94588108 5.10147297 15.5 2.1875 C15.995 1.465625 16.49 0.74375 17 0 C18.32 0 19.64 0 21 0 C19.47146065 4.27186525 17.28490519 7.99326863 14.875 11.8125 C14.50246094 12.40998047 14.12992188 13.00746094 13.74609375 13.62304688 C12.8342952 15.08426251 11.91764024 16.54244585 11 18 C7.67140292 14.95124073 5.49564707 11.78089042 3.25 7.875 C2.63640625 6.82054687 2.0228125 5.76609375 1.390625 4.6796875 C0 2 0 2 0 0 Z " fill="#43B080" transform="translate(145,134)"/>
<path d="M0 0 C5.28 0 10.56 0 16 0 C16 3.63 16 7.26 16 11 C15.01 10.67 14.02 10.34 13 10 C13 8.68 13 7.36 13 6 C12.01 5.34 11.02 4.68 10 4 C10 3.34 10 2.68 10 2 C9.67 2 9.34 2 9 2 C9 2.99 9 3.98 9 5 C9.99 5.66 10.98 6.32 12 7 C12 7.66 12 8.32 12 9 C10.68 8.67 9.36 8.34 8 8 C8.33 8.99 8.66 9.98 9 11 C8.01 11 7.02 11 6 11 C6.33 7.7 6.66 4.4 7 1 C6.01 1 5.02 1 4 1 C4 3.64 4 6.28 4 9 C3.01 8.67 2.02 8.34 1 8 C1.33 8.99 1.66 9.98 2 11 C1.34 11 0.68 11 0 11 C0 7.37 0 3.74 0 0 Z " fill="#D7C54B" transform="translate(122,107)"/>
<path d="M0 0 C0.66 0 1.32 0 2 0 C2.08078641 2.12438339 2.13909141 4.2496323 2.1875 6.375 C2.22230469 7.55835937 2.25710937 8.74171875 2.29296875 9.9609375 C2.19628906 10.96382812 2.09960938 11.96671875 2 13 C-1 15 -1 15 -3.625 14.6875 C-6 14 -6 14 -7 13 C-7.04080783 11.00041636 -7.04254356 8.99954746 -7 7 C-3.535 6.505 -3.535 6.505 0 6 C0 4.02 0 2.04 0 0 Z " fill="#394950" transform="translate(138,77)"/>
<path d="M0 0 C3.3 0 6.6 0 10 0 C10.125 7.625 10.125 7.625 9 11 C6.69 11.33 4.38 11.66 2 12 C1.67 10.68 1.34 9.36 1 8 C3.97 8.495 3.97 8.495 7 9 C7 8.01 7 7.02 7 6 C4.69 6 2.38 6 0 6 C0 5.34 0 4.68 0 4 C2.64 4 5.28 4 8 4 C8 3.34 8 2.68 8 2 C5.36 2 2.72 2 0 2 C0 1.34 0 0.68 0 0 Z " fill="#DBE2F5" transform="translate(125,137)"/>
<path d="M0 0 C1.11375 0.556875 1.11375 0.556875 2.25 1.125 C2.4375 4 2.4375 4 2.25 7.125 C-0.75 9.125 -0.75 9.125 -3.375 8.8125 C-5.75 8.125 -5.75 8.125 -6.75 7.125 C-6.79080783 5.12541636 -6.79254356 3.12454746 -6.75 1.125 C-4.02098495 -0.69434337 -3.21400584 -1.02263822 0 0 Z " fill="#479E4B" transform="translate(126.75,82.875)"/>
<path d="M0 0 C4.75 0.75 4.75 0.75 7 3 C7.66 2.01 8.32 1.02 9 0 C10.32 0.33 11.64 0.66 13 1 C10.03 5.95 10.03 5.95 7 11 C4.42355713 8.42355713 3.31230641 6.96726521 1.8125 3.8125 C1.46832031 3.09707031 1.12414062 2.38164062 0.76953125 1.64453125 C0.51558594 1.10183594 0.26164063 0.55914062 0 0 Z " fill="#395261" transform="translate(149,134)"/>
<path d="M0 0 C1.67542976 0.28604898 3.34385343 0.61781233 5 1 C4.67 2.32 4.34 3.64 4 5 C0.37 5 -3.26 5 -7 5 C-7 3.68 -7 2.36 -7 1 C-5.5459375 1.0309375 -5.5459375 1.0309375 -4.0625 1.0625 C-1.12534105 1.35618499 -1.12534105 1.35618499 0 0 Z " fill="#6B909B" transform="translate(106,134)"/>
<path d="M0 0 C0.99 0.66 1.98 1.32 3 2 C2.67 3.32 2.34 4.64 2 6 C0.68 6.33 -0.64 6.66 -2 7 C-2.33 8.65 -2.66 10.3 -3 12 C-3.99 11.67 -4.98 11.34 -6 11 C-5.29337199 7.32553433 -3.81159884 4.26087791 -2 1 C-1.34 0.67 -0.68 0.34 0 0 Z " fill="#6B8D97" transform="translate(112,140)"/>
<path d="M0 0 C1.11375 0.556875 1.11375 0.556875 2.25 1.125 C2.25 3.435 2.25 5.745 2.25 8.125 C1.59 8.125 0.93 8.125 0.25 8.125 C-0.08 6.475 -0.41 4.825 -0.75 3.125 C-1.41 3.125 -2.07 3.125 -2.75 3.125 C-3.41 4.775 -4.07 6.425 -4.75 8.125 C-5.41 8.125 -6.07 8.125 -6.75 8.125 C-6.75 5.815 -6.75 3.505 -6.75 1.125 C-4.02098495 -0.69434337 -3.21400584 -1.02263822 0 0 Z " fill="#404D54" transform="translate(116.75,82.875)"/>
<path d="M0 0 C0.7425 0.391875 1.485 0.78375 2.25 1.1875 C1.92 2.5075 1.59 3.8275 1.25 5.1875 C-0.07 4.5275 -1.39 3.8675 -2.75 3.1875 C-2.75 4.1775 -2.75 5.1675 -2.75 6.1875 C-2.09 6.5175 -1.43 6.8475 -0.75 7.1875 C-0.75 7.8475 -0.75 8.5075 -0.75 9.1875 C-5.625 8.3125 -5.625 8.3125 -6.75 7.1875 C-7.0625 4.8125 -7.0625 4.8125 -6.75 2.1875 C-4.35473374 -0.56262052 -3.55577952 -1.05057122 0 0 Z " fill="#3F4C53" transform="translate(147.75,82.8125)"/>
<path d="M0 0 C2.31 0 4.62 0 7 0 C7.02703381 1.93742341 7.04641125 3.87495479 7.0625 5.8125 C7.07410156 6.89144531 7.08570313 7.97039062 7.09765625 9.08203125 C7 12 7 12 6 15 C4.68 14.34 3.36 13.68 2 13 C2.66 13 3.32 13 4 13 C4.33 9.37 4.66 5.74 5 2 C3.35 2 1.7 2 0 2 C0 1.34 0 0.68 0 0 Z " fill="#3367EE" transform="translate(130,135)"/>
<path d="M0 0 C5.28 0 10.56 0 16 0 C16 2.64 16 5.28 16 8 C15.67 8 15.34 8 15 8 C15 5.69 15 3.38 15 1 C12.69 1 10.38 1 8 1 C8 1.66 8 2.32 8 3 C6.02 3 4.04 3 2 3 C2 3.66 2 4.32 2 5 C1.34 5 0.68 5 0 5 C0 3.35 0 1.7 0 0 Z " fill="#2A50E0" transform="translate(122,134)"/>
<path d="M0 0 C1.65 0.33 3.3 0.66 5 1 C5.625 2.875 5.625 2.875 6 5 C5.34 5.66 4.68 6.32 4 7 C2.68 7 1.36 7 0 7 C-1.125 2.25 -1.125 2.25 0 0 Z " fill="#6A97A3" transform="translate(102,140)"/>
<path d="M0 0 C1.32 0 2.64 0 4 0 C4 2.97 4 5.94 4 9 C3.01 8.67 2.02 8.34 1 8 C1.33 8.99 1.66 9.98 2 11 C1.34 11 0.68 11 0 11 C0 7.37 0 3.74 0 0 Z " fill="#EAD64E" transform="translate(122,107)"/>
<path d="M0 0 C0.99 0 1.98 0 3 0 C3.1953125 6.0546875 3.1953125 6.0546875 3 8 C2.34 8.66 1.68 9.32 1 10 C-1.125 9.625 -1.125 9.625 -3 9 C-3 8.34 -3 7.68 -3 7 C-2.34 7 -1.68 7 -1 7 C-0.67 4.69 -0.34 2.38 0 0 Z " fill="#686338" transform="translate(126,108)"/>
<path d="M0 0 C1.32 0 2.64 0 4 0 C3.67 0.66 3.34 1.32 3 2 C2.34 1.67 1.68 1.34 1 1 C2.0209375 1.8353125 2.0209375 1.8353125 3.0625 2.6875 C3.701875 3.450625 4.34125 4.21375 5 5 C4.75 7.75 4.75 7.75 4 10 C2.35 9.67 0.7 9.34 -1 9 C-1 8.34 -1 7.68 -1 7 C0.32 7.33 1.64 7.66 3 8 C2.319375 7.4225 1.63875 6.845 0.9375 6.25 C0.298125 5.5075 -0.34125 4.765 -1 4 C-0.75 1.75 -0.75 1.75 0 0 Z " fill="#4F4C34" transform="translate(131,108)"/>
<path d="M0 0 C0.66 0.66 1.32 1.32 2 2 C4.10820797 1.6814823 4.10820797 1.6814823 6 1 C6.33 2.32 6.66 3.64 7 5 C6.01 5.33 5.02 5.66 4 6 C3.67 6.66 3.34 7.32 3 8 C2.01 7.34 1.02 6.68 0 6 C-0.1875 2.875 -0.1875 2.875 0 0 Z " fill="#535B5F" transform="translate(131,84)"/>
<path d="M0 0 C0 0.99 0 1.98 0 3 C-2.97 3 -5.94 3 -9 3 C-9 2.01 -9 1.02 -9 0 C-5.67465243 -1.10844919 -3.37817425 -0.84454356 0 0 Z " fill="#2F4083" transform="translate(134,129)"/>
<path d="M0 0 C1.125 4.75 1.125 4.75 0 7 C-1.32 6.34 -2.64 5.68 -4 5 C-4 3.68 -4 2.36 -4 1 C-2 0 -2 0 0 0 Z " fill="#6A929D" transform="translate(98,140)"/>
<path d="M0 0 C0.33 0.99 0.66 1.98 1 3 C0.01 3.495 0.01 3.495 -1 4 C-1.99 5.485 -1.99 5.485 -3 7 C-3.66 5.68 -4.32 4.36 -5 3 C-6.65 3 -8.3 3 -10 3 C-10 2.34 -10 1.68 -10 1 C-6.61981469 -0.04005702 -3.5219721 -0.08004482 0 0 Z " fill="#65BCD3" transform="translate(111,138)"/>
<path d="M0 0 C0.66 1.32 1.32 2.64 2 4 C0 6 0 6 -2.625 6.125 C-3.40875 6.08375 -4.1925 6.0425 -5 6 C-5.33 4.68 -5.66 3.36 -6 2 C-3.03 2.495 -3.03 2.495 0 3 C0 2.01 0 1.02 0 0 Z " fill="#C5D1F2" transform="translate(132,143)"/>
<path d="M0 0 C2.31 0 4.62 0 7 0 C7 0.99 7 1.98 7 3 C6.21625 2.95875 5.4325 2.9175 4.625 2.875 C1.83883881 2.71271266 1.83883881 2.71271266 0 5 C0 3.35 0 1.7 0 0 Z " fill="#5B7DE9" transform="translate(125,143)"/>
<path d="M0 0 C1.32 0.33 2.64 0.66 4 1 C3.67 2.32 3.34 3.64 3 5 C2.01 5 1.02 5 0 5 C0 3.35 0 1.7 0 0 Z " fill="#6C868E" transform="translate(99,148)"/>
</svg>
